<svg width="96" height="96" xmlns="http://www.w3.org/2000/svg" xmlns:xlink="http://www.w3.org/1999/xlink" xml:space="preserve" overflow="hidden"><g transform="translate(-1052 -336)"><path d="M1133 387 1126.1 375 1126.1 374.5C1126.7 357.9 1113.7 344 1097.1 343.4 1080.5 342.8 1066.6 355.7 1066 372.3 1066 373 1066 373.8 1066 374.5 1066 384 1070.3 392.9 1077.8 398.7L1077.8 424 1109.4 424 1109.4 412 1114.3 412C1120.8 412 1126.1 406.7 1126.1 400.2 1126.1 400.1 1126.1 400.1 1126.1 400L1126.1 394 1130.5 394C1133.1 393.7 1135.4 390.7 1133 387ZM1070.5 364.5 1076 364.5 1076 360.5C1074.9 359.7 1074.7 358.1 1075.5 357 1076.3 355.9 1077.9 355.7 1079 356.5 1080.1 357.3 1080.3 358.9 1079.5 360 1079.4 360.2 1079.2 360.4 1079 360.5L1079 364.5 1083 364.5 1083 371.5C1084.1 372.3 1084.3 373.9 1083.5 375 1082.7 376.1 1081.1 376.3 1080 375.5 1078.9 374.7 1078.7 373.1 1079.5 372 1079.6 371.8 1079.8 371.6 1080 371.5L1080 367.5 1069.6 367.5C1069.9 366.5 1070.1 365.5 1070.5 364.5ZM1098.3 381.4C1096.9 381.4 1095.8 380.3 1095.8 378.9 1095.8 378.8 1095.8 378.6 1095.8 378.5L1093.2 375.9 1089 380.1 1089 387.5C1090.1 388.3 1090.3 389.9 1089.5 391 1088.7 392.1 1087.1 392.3 1086 391.5 1084.9 390.7 1084.7 389.1 1085.5 388 1085.6 387.8 1085.8 387.6 1086 387.5L1086 386.5 1079.3 386.5 1074.6 381C1073.2 381.1 1072 380.1 1071.9 378.7 1071.8 377.3 1072.8 376.1 1074.2 376 1075.6 375.9 1076.8 376.9 1076.9 378.3 1076.9 378.5 1076.9 378.8 1076.9 379L1080.7 383.5 1086 383.5 1086 378.9 1091.1 373.8 1088 370.6 1088 352.5C1086.9 351.7 1086.7 350.1 1087.5 349 1088.3 347.9 1089.9 347.7 1091 348.5 1092.1 349.3 1092.3 350.9 1091.5 352 1091.4 352.2 1091.2 352.4 1091 352.5L1091 355.5 1099 355.5 1099 362.5C1100.1 363.3 1100.3 364.9 1099.5 366 1098.7 367.1 1097.1 367.3 1096 366.5 1094.9 365.7 1094.7 364.1 1095.5 363 1095.6 362.8 1095.8 362.6 1096 362.5L1096 358.5 1091 358.5 1091 369.4 1098 376.4C1098.1 376.4 1098.2 376.4 1098.3 376.4 1099.7 376.4 1100.8 377.5 1100.8 378.9 1100.8 380.3 1099.7 381.4 1098.3 381.4L1098.3 381.4ZM1110.5 361.2C1109.1 361.2 1108 360.1 1108 358.7 1108 358.6 1108 358.6 1108 358.5L1104 354.9 1104 347.6C1105 347.9 1106 348.3 1107 348.7L1107 353.6 1110 356.3C1110.2 356.3 1110.3 356.3 1110.5 356.3 1111.9 356.3 1113 357.4 1113 358.8 1113 360.2 1111.9 361.2 1110.5 361.2L1110.5 361.2Z" fill="#4E95D9"/></g></svg>